<svg width="96" height="96" xmlns="http://www.w3.org/2000/svg" xmlns:xlink="http://www.w3.org/1999/xlink" xml:space="preserve" overflow="hidden"><g transform="translate(-592 -312)"><path d="M602 333 602 387 678 387 678 333ZM642.122 367.464C640.948 368.631 639.052 368.631 637.878 367.464L605.431 335.017C605.427 335.013 605.427 335.007 605.431 335.003 605.433 335.001 605.435 335 605.438 335L674.562 335C674.568 335 674.572 335.005 674.572 335.01 674.572 335.013 674.571 335.015 674.569 335.017ZM627.586 360 604.017 383.569C604.013 383.573 604.007 383.573 604.003 383.569 604.001 383.567 604 383.565 604 383.562L604 336.438C604 336.432 604.005 336.428 604.01 336.428 604.013 336.428 604.015 336.429 604.017 336.431ZM629 361.414 636.464 368.878C638.416 370.831 641.582 370.831 643.535 368.879 643.535 368.879 643.536 368.878 643.536 368.878L651 361.414 674.569 384.983C674.573 384.987 674.573 384.993 674.569 384.997 674.567 384.999 674.565 385 674.562 385L605.438 385C605.432 385 605.428 384.995 605.428 384.99 605.428 384.987 605.429 384.985 605.431 384.983ZM652.414 360 675.983 336.431C675.987 336.427 675.993 336.427 675.997 336.431 675.999 336.433 676 336.435 676 336.438L676 383.562C676 383.568 675.995 383.572 675.99 383.572 675.987 383.572 675.985 383.571 675.983 383.569Z"/></g></svg>